<?xml version="1.0" standalone="no"?>
<!DOCTYPE svg PUBLIC "-//W3C//DTD SVG 20010904//EN"
 "http://www.w3.org/TR/2001/REC-SVG-20010904/DTD/svg10.dtd">
<svg version="1.0" xmlns="http://www.w3.org/2000/svg"
 width="201.000000pt" height="278.000000pt" viewBox="0 0 201.000000 278.000000"
 preserveAspectRatio="xMidYMid meet">

<g transform="translate(0.000000,278.000000) scale(0.100000,-0.100000)"
fill="#000000" stroke="none">
<path d="M710 2723 c-233 -14 -345 -38 -360 -78 -5 -12 -16 -64 -24 -116 -9
-52 -26 -116 -38 -142 -21 -46 -21 -49 -5 -59 10 -5 15 -13 12 -18 -3 -5 8
-18 24 -29 17 -13 30 -32 33 -50 2 -17 2 -28 -2 -26 -3 2 -14 -8 -22 -23 -9
-15 -35 -38 -58 -52 -96 -58 -118 -79 -149 -141 l-31 -62 0 -199 c0 -130 3
-197 10 -193 6 3 10 1 10 -4 0 -6 -4 -11 -10 -11 -7 0 -10 -178 -10 -513 0
-561 0 -557 61 -678 40 -80 134 -171 222 -214 100 -49 287 -83 287 -52 0 9 2
9 9 -1 7 -11 79 -13 392 -10 l384 4 80 27 c139 47 251 141 311 262 41 84 51
153 43 295 -3 58 -2 108 3 111 5 3 7 266 6 600 -3 586 -3 595 -24 634 -29 54
-68 91 -131 127 -109 61 -133 128 -66 184 l37 31 -14 43 c-8 23 -20 48 -27 55
-6 7 -10 15 -7 18 7 7 -22 182 -35 206 -23 41 -169 64 -510 77 l-174 7 7 -26
c8 -34 -1 -35 -14 -2 -9 24 -13 25 -87 23 -43 -1 -103 -3 -133 -5z m190 -53
c0 -5 -4 -10 -10 -10 -5 0 -10 5 -10 10 0 6 5 10 10 10 6 0 10 -4 10 -10z m65
-40 c3 -5 1 -10 -4 -10 -6 0 -11 5 -11 10 0 6 2 10 4 10 3 0 8 -4 11 -10z
m583 -46 c12 -8 22 -21 22 -29 0 -14 -4 -16 -77 -35 -24 -6 -43 -16 -43 -23 0
-9 -2 -9 -8 -1 -5 9 -42 8 -142 -3 -236 -26 -761 -2 -862 38 -31 13 -36 30
-14 48 11 9 29 10 73 1 108 -20 257 -30 265 -17 6 9 8 9 8 0 0 -27 566 -9 693
22 29 7 54 13 57 14 3 1 16 -6 28 -15z m50 -102 c-4 -20 -89 -48 -175 -57 -35
-4 -63 -12 -63 -17 0 -6 -7 -7 -16 -4 -8 3 -90 1 -182 -4 -181 -11 -430 -1
-606 25 -140 21 -178 32 -174 53 2 10 11 16 23 14 11 -1 80 -12 152 -22 92
-14 197 -21 340 -22 193 -3 446 7 463 17 4 2 32 7 63 10 31 4 78 12 104 19 55
14 75 10 71 -12z m26 -68 c9 -23 1 -31 -54 -49 -104 -34 -213 -46 -500 -52
-239 -4 -309 -2 -435 13 -82 10 -162 18 -177 18 -14 1 -24 4 -21 9 2 4 -5 7
-16 7 -33 0 -72 22 -69 39 4 20 19 19 169 -7 187 -33 722 -41 703 -11 -8 13
10 11 23 -2 13 -13 195 9 288 35 68 19 82 19 89 0z m11 -93 c-20 -19 -133 -50
-245 -67 -163 -25 -660 -25 -805 0 -55 9 -112 19 -127 22 -47 7 -123 39 -120
49 4 12 2 12 115 -15 157 -37 595 -53 807 -29 52 6 109 12 125 13 63 5 125 19
120 26 -2 4 6 5 18 3 12 -2 40 2 62 10 40 15 69 7 50 -12z m-1042 -104 c40 -4
57 -2 57 6 0 7 4 6 10 -3 7 -12 51 -15 247 -18 245 -5 456 8 571 34 92 20 95
20 115 -31 20 -47 59 -86 142 -138 54 -35 89 -80 105 -136 13 -49 13 -1010 0
-1121 -6 -47 -13 -101 -15 -120 -18 -149 -51 -247 -104 -304 -22 -24 -23 -27
-5 -18 43 23 81 79 99 148 33 125 43 118 26 -17 -15 -118 -71 -206 -204 -324
-23 -20 -142 -68 -177 -72 -19 -2 -41 -6 -49 -9 -8 -3 -200 -4 -425 -4 -296 1
-428 5 -471 14 -184 39 -343 196 -375 368 -12 64 -13 1413 -1 1454 13 45 36
87 61 109 13 11 21 16 18 10 -2 -5 -13 -28 -23 -50 -13 -27 -20 -67 -21 -120
l-3 -80 9 73 c14 106 38 153 128 240 54 53 81 87 85 108 l6 31 68 -12 c37 -7
94 -15 126 -18z m1227 -1877 c0 -5 -5 -10 -11 -10 -5 0 -7 5 -4 10 3 6 8 10
11 10 2 0 4 -4 4 -10z"/>
<path d="M270 2013 c-17 -26 -30 -54 -30 -62 1 -9 7 -1 15 17 8 18 24 47 35
63 12 16 19 29 15 29 -3 0 -19 -21 -35 -47z"/>
<path d="M773 2045 c28 -12 445 -12 474 0 15 7 -63 10 -237 10 -178 0 -252 -3
-237 -10z"/>
<path d="M1727 1976 c23 -26 45 -60 48 -77 4 -16 10 -31 15 -34 15 -9 -11 67
-33 97 -12 15 -32 36 -46 45 -19 12 -14 3 16 -31z"/>
<path d="M680 1993 c75 -17 564 -23 638 -7 30 6 -51 9 -265 9 -169 0 -337 3
-373 7 l-65 6 65 -15z"/>
<path d="M1378 2003 c7 -3 16 -2 19 1 4 3 -2 6 -13 5 -11 0 -14 -3 -6 -6z"/>
<path d="M582 1878 c-16 -16 -15 -23 4 -64 20 -41 50 -45 90 -11 36 32 27 62
-16 54 -23 -5 -30 -2 -35 13 -7 23 -25 26 -43 8z"/>
<path d="M1664 1819 c5 -28 -10 -59 -29 -59 -21 0 -78 36 -84 53 -7 18 -8 18
-24 2 -27 -26 -5 -52 58 -70 30 -9 55 -22 55 -28 -1 -35 -28 -175 -38 -193 -6
-12 -25 -27 -42 -34 -38 -16 -60 -1 -60 40 0 45 10 60 39 60 35 0 51 17 51 52
0 21 -6 31 -25 38 -29 11 -55 4 -55 -16 0 -8 -4 -14 -8 -14 -10 0 -32 -60 -32
-87 0 -11 7 -37 15 -56 19 -47 19 -54 -4 -67 -24 -12 -66 1 -75 25 -4 11 3 20
27 31 l32 15 -34 -5 -34 -6 6 37 c4 21 18 59 31 85 22 43 23 49 10 63 -18 17
-24 18 -43 6 -7 -5 -11 -13 -7 -19 3 -6 -3 -39 -14 -74 -11 -34 -20 -71 -20
-80 0 -21 -32 -56 -46 -51 -13 4 -74 -37 -88 -59 -8 -13 -7 -21 1 -29 9 -9 22
-3 53 29 55 55 73 59 112 27 42 -36 97 -32 116 8 9 19 21 27 38 27 14 0 36 8
50 17 21 13 30 14 45 5 15 -10 17 -9 13 3 -5 13 18 169 32 218 4 12 17 17 42
19 l37 1 -34 4 c-33 4 -34 5 -27 48 5 37 2 46 -14 55 -29 16 -33 12 -26 -21z
m16 -99 c0 -5 -4 -10 -10 -10 -5 0 -10 5 -10 10 0 6 5 10 10 10 6 0 10 -4 10
-10z m-110 -73 c0 -17 -34 -49 -43 -41 -7 8 22 54 34 54 5 0 9 -6 9 -13z"/>
<path d="M342 1796 l5 -44 -32 3 c-18 1 -43 9 -56 16 -13 7 -27 13 -30 12 -3
-1 -4 10 -1 25 5 24 4 26 -11 13 -10 -7 -17 -26 -17 -41 0 -29 22 -44 84 -56
l36 -6 -6 -106 c-6 -92 -5 -106 10 -117 9 -7 15 -19 14 -26 -4 -18 30 -23 48
-8 8 7 22 26 30 43 14 29 14 30 -1 11 -9 -11 -20 -26 -24 -34 -5 -8 -16 -11
-25 -8 -20 8 -21 70 -4 164 10 53 16 67 36 74 47 18 60 12 64 -31 2 -22 0 -41
-3 -42 -13 -5 -15 -181 -3 -185 15 -5 25 35 30 124 3 40 8 103 13 140 9 69 2
93 -25 93 -10 0 -14 -13 -14 -40 l0 -40 -41 0 -41 0 7 40 c7 43 -5 70 -33 70
-11 0 -14 -9 -10 -44z"/>
<path d="M1290 1755 c-17 -21 -5 -59 25 -79 14 -9 23 -21 20 -26 -4 -6 -2 -10
2 -10 20 0 29 35 19 70 l-10 35 -4 -28 c-3 -23 -6 -26 -18 -16 -17 14 -18 36
-3 41 7 2 6 8 -4 16 -11 10 -17 9 -27 -3z"/>
<path d="M755 1740 c-10 -16 14 -50 35 -50 18 0 50 24 50 39 0 16 -13 20 -31
11 -12 -7 -20 -7 -24 0 -8 13 -22 13 -30 0z"/>
<path d="M883 1715 c-3 -9 -3 -39 0 -68 3 -35 0 -58 -10 -74 -34 -51 13 -98
58 -57 16 14 19 26 14 56 -6 34 -4 38 19 44 32 8 46 -1 46 -30 0 -13 8 -34 19
-47 l18 -23 -5 52 c-4 50 -3 52 20 52 32 0 48 18 48 51 0 32 -4 36 -45 40 -25
3 -32 -1 -46 -30 -15 -32 -71 -67 -90 -56 -15 10 -22 74 -9 90 10 13 9 15 -9
15 -12 0 -24 -7 -28 -15z m207 -31 c0 -21 -18 -54 -30 -54 -13 0 -13 26 0 51
13 23 30 25 30 3z m-170 -133 c0 -33 -16 -49 -32 -33 -14 14 -1 62 17 62 10 0
15 -10 15 -29z"/>
<path d="M948 1700 c2 -17 10 -30 19 -30 20 0 13 54 -8 58 -12 2 -15 -4 -11
-28z"/>
<path d="M1173 1712 c-19 -12 -34 -61 -32 -106 1 -23 -2 -52 -7 -66 -7 -22 -6
-24 9 -12 9 8 21 10 28 6 9 -5 10 0 6 18 -9 35 9 127 30 150 15 17 15 18 -3
18 -10 0 -24 -4 -31 -8z"/>
<path d="M1233 1695 c4 -8 2 -17 -4 -20 -11 -7 -3 -25 12 -25 5 0 9 14 9 30 0
17 -5 30 -11 30 -6 0 -9 -7 -6 -15z"/>
<path d="M625 1636 c-23 -55 -19 -110 10 -143 l25 -28 -11 33 c-15 45 -5 79
23 78 14 -1 27 8 35 24 16 32 -3 64 -41 68 -22 3 -29 -2 -41 -32z m65 0 c0
-25 -12 -46 -26 -46 -17 0 -17 1 -4 34 10 28 30 35 30 12z"/>
<path d="M530 1635 c-18 -46 -22 -75 -12 -75 5 0 7 -11 5 -24 -6 -30 22 -86
43 -86 14 0 14 3 4 15 -13 15 -10 124 4 157 5 11 1 20 -13 28 -18 9 -22 7 -31
-15z"/>
<path d="M1280 1586 c0 -15 -12 -34 -31 -50 -21 -18 -26 -26 -14 -26 25 0 65
46 65 75 0 14 -4 25 -10 25 -5 0 -10 -11 -10 -24z"/>
<path d="M750 1531 c0 -11 -14 -31 -31 -45 -26 -22 -28 -26 -10 -26 11 0 29
12 40 26 22 28 28 64 11 64 -5 0 -10 -9 -10 -19z"/>
<path d="M1750 1536 c0 -10 -14 -31 -31 -47 -34 -32 -33 -35 4 -18 30 14 53
57 37 73 -7 7 -10 5 -10 -8z"/>
<path d="M1090 1509 c0 -5 5 -7 10 -4 6 3 10 8 10 11 0 2 -4 4 -10 4 -5 0 -10
-5 -10 -11z"/>
<path d="M765 1443 c-47 -11 -29 -18 39 -15 59 3 84 -1 125 -18 28 -13 51 -26
51 -30 0 -12 25 -19 39 -11 44 28 -73 82 -172 80 -34 -1 -71 -3 -82 -6z"/>
<path d="M276 1424 c-16 -41 14 -68 43 -40 13 14 13 18 -4 36 -22 24 -31 25
-39 4z"/>
<path d="M1763 1425 c5 -16 37 -18 37 -3 0 8 -9 14 -20 14 -11 0 -19 -5 -17
-11z"/>
<path d="M1111 1353 c-6 -42 -13 -79 -15 -81 -3 -2 -13 1 -24 7 -27 14 -49 5
-56 -22 -12 -51 -68 -137 -92 -143 -13 -3 -24 -10 -24 -15 0 -13 17 -11 50 6
27 14 30 14 40 -5 15 -28 32 -25 24 4 -3 13 0 43 7 67 7 24 12 48 10 53 -5 20
12 46 30 46 15 0 19 -7 19 -34 0 -19 6 -37 13 -39 9 -4 9 -8 0 -14 -6 -4 -15
-22 -19 -38 -3 -17 -14 -38 -22 -47 -8 -10 -12 -18 -7 -18 4 0 14 8 21 18 13
16 15 16 25 0 22 -37 34 -19 34 50 1 37 10 110 22 162 20 87 20 95 5 107 -10
7 -20 13 -23 13 -4 0 -12 -35 -18 -77z"/>
<path d="M1664 1370 c-4 -22 -10 -43 -15 -46 -13 -8 -65 23 -87 51 -20 25 -21
25 -31 6 -6 -11 -8 -26 -5 -34 6 -16 72 -47 99 -47 21 0 25 -12 14 -59 -18
-81 -20 -158 -3 -171 19 -17 21 -15 27 55 8 85 25 148 43 162 9 6 11 14 6 17
-6 3 -8 24 -5 47 4 29 2 44 -8 50 -24 15 -29 10 -35 -31z"/>
<path d="M666 1354 c-8 -20 9 -50 34 -64 12 -6 17 -17 14 -28 -5 -16 -5 -16 9
1 8 9 21 17 28 17 12 0 14 -14 11 -68 -3 -54 -1 -72 13 -85 9 -9 22 -17 28
-17 8 0 7 4 -1 12 -18 18 -14 77 7 125 23 50 12 67 -37 57 -27 -6 -33 -3 -41
17 l-10 24 0 -24 c-1 -20 -3 -21 -16 -11 -20 17 -19 40 3 40 14 0 15 2 2 10
-22 14 -37 12 -44 -6z"/>
<path d="M244 1315 c-4 -30 -2 -58 8 -83 11 -30 19 -37 43 -39 17 -1 22 1 13
3 -25 7 -31 41 -18 98 8 39 8 51 -2 58 -26 16 -37 7 -44 -37z"/>
<path d="M356 1329 c-3 -19 -8 -50 -11 -69 -10 -59 -6 -94 12 -108 15 -11 19
-8 29 25 6 21 8 42 4 46 -4 5 -3 29 1 55 8 40 6 49 -10 66 -19 19 -20 19 -25
-15z"/>
<path d="M546 1309 c-32 -63 -35 -133 -7 -148 18 -10 19 -8 14 29 -5 32 -3 40
10 40 9 0 21 -10 28 -21 14 -27 0 -56 -53 -116 -42 -47 -57 -102 -38 -139 19
-34 26 -30 22 15 -4 44 29 121 53 121 16 0 14 -42 -5 -118 -7 -28 -6 -32 5
-22 17 14 20 27 54 220 21 117 20 142 -7 173 -27 30 -49 21 -76 -34z m73 19
c17 -46 -6 -126 -29 -102 -12 13 -22 83 -15 106 9 25 34 23 44 -4z"/>
<path d="M446 1342 c-2 -4 -14 -33 -25 -63 -15 -37 -17 -48 -6 -35 14 18 15
15 15 -41 0 -45 4 -64 18 -76 19 -17 47 -24 40 -9 -2 4 -10 19 -17 34 -12 23
-11 38 4 103 16 66 16 78 4 86 -18 11 -26 11 -33 1z"/>
<path d="M854 1255 c-19 -41 -23 -63 -18 -90 8 -43 24 -56 24 -20 0 30 43 129
60 140 23 14 23 -6 1 -36 -13 -17 -20 -33 -17 -36 11 -11 37 7 47 34 9 24 7
30 -11 45 -39 32 -59 23 -86 -37z"/>
<path d="M1222 1278 c2 -12 9 -23 17 -26 9 -3 11 0 6 8 -6 10 -4 12 8 7 20 -7
22 4 5 21 -20 20 -40 14 -36 -10z"/>
<path d="M1748 1293 c7 -3 16 -2 19 1 4 3 -2 6 -13 5 -11 0 -14 -3 -6 -6z"/>
<path d="M1447 1253 c-3 -15 -9 -50 -12 -78 -8 -64 -27 -92 -68 -104 l-32 -9
31 -1 c16 -1 39 5 49 13 11 8 25 12 32 9 19 -8 29 33 29 116 -1 76 -19 109
-29 54z"/>
<path d="M1520 1234 c-23 -52 -24 -58 -10 -49 6 4 10 -14 10 -47 0 -30 6 -61
13 -70 15 -19 47 -31 47 -18 0 6 -4 10 -10 10 -14 0 -28 61 -20 90 4 14 14 44
21 68 11 37 11 45 -2 53 -24 15 -29 11 -49 -37z"/>
<path d="M1319 1239 c-23 -33 -36 -107 -24 -136 6 -14 10 -8 20 27 10 38 15
45 35 42 49 -5 82 65 41 88 -32 17 -48 12 -72 -21z m71 0 c0 -20 -21 -49 -36
-49 -13 0 -13 4 3 30 17 30 33 39 33 19z"/>
<path d="M1195 1187 c-4 -24 -5 -55 -3 -68 3 -25 33 -59 52 -59 6 0 5 4 -3 9
-10 6 -12 28 -10 82 3 63 2 74 -13 77 -13 2 -18 -7 -23 -41z"/>
<path d="M177 1134 c-8 -9 21 -64 34 -64 6 0 17 7 26 15 13 14 12 17 -9 35
-24 20 -40 24 -51 14z"/>
<path d="M240 1130 c0 -5 5 -10 10 -10 6 0 10 5 10 10 0 6 -4 10 -10 10 -5 0
-10 -4 -10 -10z"/>
<path d="M821 1058 c-11 -27 -31 -169 -36 -253 -3 -62 14 -115 38 -115 7 0 21
6 32 13 17 13 17 14 -6 13 -20 -1 -24 5 -30 38 -7 46 3 98 36 183 14 34 25 70
24 80 0 10 -7 -1 -16 -24 -8 -24 -19 -43 -24 -43 -15 0 0 93 17 106 15 12 9
24 -13 24 -7 0 -17 -10 -22 -22z"/>
<path d="M670 1060 c0 -17 26 -30 38 -18 18 18 15 23 -13 24 -14 1 -25 -2 -25
-6z"/>
<path d="M272 1048 c-18 -18 -14 -46 9 -58 28 -16 51 -5 47 21 -4 30 -40 53
-56 37z"/>
<path d="M1720 1021 c0 -5 9 -19 19 -32 18 -21 21 -22 35 -9 28 29 23 43 -16
46 -21 2 -38 -1 -38 -5z"/>
<path d="M390 1000 c-6 -11 -10 -44 -9 -73 1 -33 -4 -63 -14 -82 -21 -38 -21
-51 -1 -59 49 -19 91 19 80 72 -6 24 -3 30 21 39 l28 12 -34 -2 c-29 -2 -36 2
-44 26 -10 32 5 59 32 55 9 -2 16 4 16 12 0 10 -12 16 -32 18 -24 2 -34 -2
-43 -18z m28 -164 c4 -20 -16 -48 -29 -40 -11 6 -12 48 -2 58 11 10 28 1 31
-18z"/>
<path d="M1204 988 c-24 -38 -53 -98 -47 -98 3 0 1 -6 -5 -12 -12 -15 -5 -63
12 -76 24 -20 54 -23 69 -7 21 20 26 19 37 -10 5 -14 17 -25 27 -25 13 0 14 3
5 12 -16 16 -15 83 3 132 17 47 4 96 -20 76 -11 -9 -19 -8 -37 4 -27 19 -34
20 -44 4z m50 -58 c-1 -75 -7 -96 -30 -113 -34 -25 -47 -3 -35 59 15 77 29
106 49 102 13 -3 17 -13 16 -48z"/>
<path d="M1386 971 c-3 -5 -11 -41 -18 -80 -11 -66 -11 -73 9 -98 25 -35 49
-40 74 -17 13 12 19 13 19 4 0 -7 -20 -31 -44 -54 -70 -65 -82 -156 -26 -186
17 -9 25 -7 49 17 22 23 31 45 41 103 10 58 20 82 41 105 31 33 43 89 14 65
-13 -11 -13 -15 -3 -21 9 -6 6 -9 -9 -9 -23 0 -22 -4 -10 105 1 14 -5 21 -19
23 -19 3 -23 -4 -34 -50 -21 -90 -51 -122 -70 -73 -9 24 -7 33 21 124 9 26 8
35 -2 42 -18 11 -26 11 -33 0z m67 -303 c-11 -85 -53 -147 -53 -79 0 36 16 80
37 103 9 10 17 18 19 18 1 0 0 -19 -3 -42z"/>
<path d="M632 958 c-5 -7 -19 -34 -31 -60 -36 -79 -25 -129 31 -142 20 -5 30
-1 41 14 13 19 14 19 36 -10 12 -17 29 -30 37 -30 13 0 13 2 -1 17 -14 14 -16
29 -12 87 4 39 9 83 13 99 5 23 3 27 -14 27 -12 0 -24 -5 -27 -10 -4 -6 -9 -8
-13 -6 -4 2 -7 -24 -8 -59 -1 -66 -24 -120 -47 -112 -19 6 -14 130 6 161 9 14
17 28 17 31 0 10 -17 5 -28 -7z"/>
<path d="M1070 952 c13 -27 6 -57 -11 -46 -7 4 -4 -7 6 -24 15 -25 17 -39 9
-83 -6 -39 -14 -55 -26 -57 -26 -5 -41 43 -35 116 4 55 3 62 -13 62 -44 0 -21
-176 25 -194 45 -17 87 48 88 136 0 52 -3 63 -27 86 -26 25 -27 26 -16 4z"/>
<path d="M1609 919 c-15 -21 -23 -48 -24 -73 0 -23 -8 -52 -18 -66 -25 -36
-22 -68 7 -76 39 -9 66 11 66 50 0 30 3 34 34 40 44 8 86 42 86 69 0 20 -2 19
-29 -7 -31 -30 -100 -52 -102 -32 -3 24 4 42 23 63 11 11 18 29 16 39 -6 31
-34 27 -59 -7z m1 -163 c0 -28 -17 -43 -32 -28 -7 7 -6 17 1 31 16 28 31 27
31 -3z"/>
<path d="M260 886 c0 -30 4 -66 9 -79 11 -28 47 -45 63 -29 7 7 4 10 -8 9 -17
-2 -19 6 -18 76 1 75 1 77 -22 77 -22 0 -24 -4 -24 -54z"/>
<path d="M894 906 c-3 -20 -3 -56 0 -81 6 -35 11 -45 26 -45 17 0 18 3 9 27
-5 15 -9 49 -7 76 4 60 -17 77 -28 23z"/>
<path d="M476 829 c-8 -12 -21 -48 -27 -78 -7 -31 -23 -67 -36 -82 -12 -14
-23 -33 -23 -43 0 -16 2 -15 19 5 18 23 18 22 14 -52 -4 -83 9 -122 44 -127
14 -2 28 7 43 28 l22 31 20 -20 c28 -31 34 -26 30 24 -3 36 -1 44 10 40 12 -5
14 4 10 51 -4 48 -2 60 14 72 19 13 19 14 0 10 -21 -3 -60 -70 -76 -130 -13
-48 -52 -94 -70 -83 -9 6 -11 31 -8 101 5 90 6 95 41 133 42 47 49 66 39 106
-11 38 -44 45 -66 14z m46 -47 c-12 -41 -52 -88 -52 -61 0 23 21 93 33 107 20
24 31 -4 19 -46z"/>
<path d="M282 701 c2 -9 12 -16 23 -16 11 0 21 7 23 16 2 12 -4 17 -23 17 -19
0 -25 -5 -23 -17z"/>
<path d="M1292 680 c2 -8 10 -15 18 -15 8 0 16 7 18 15 2 10 -5 16 -18 16 -13
0 -20 -6 -18 -16z"/>
<path d="M1060 669 c-22 -41 40 -149 85 -149 28 0 90 50 110 90 12 23 12 30
-1 49 -18 25 -50 27 -76 4 -17 -15 -20 -15 -41 5 -29 28 -63 28 -77 1z"/>
<path d="M646 653 c4 -18 3 -53 -1 -78 -5 -37 -10 -45 -22 -41 -13 5 -14 4 -3
-9 11 -13 10 -19 -5 -35 -10 -11 -13 -20 -8 -20 9 0 46 45 48 60 15 74 16 100
1 126 l-15 29 5 -32z"/>
<path d="M930 665 c0 -9 -4 -13 -10 -10 -14 9 -56 -85 -52 -117 5 -40 45 -78
82 -78 33 0 80 38 80 65 0 22 -8 19 -36 -14 -71 -84 -124 -19 -72 87 22 42 42
61 55 49 3 -3 -5 -20 -17 -37 -21 -29 -21 -32 -4 -28 10 2 25 15 34 30 13 24
13 29 0 42 -25 23 -60 30 -60 11z"/>
<path d="M796 610 c-15 -27 -31 -50 -35 -50 -4 0 -11 19 -17 43 -6 26 -14 42
-24 42 -12 0 -15 -11 -13 -50 4 -129 41 -179 63 -86 12 51 43 91 55 72 3 -6
11 -11 17 -11 6 0 3 9 -7 20 -17 19 -17 21 -2 38 20 22 21 32 4 32 -8 0 -26
-22 -41 -50z"/>
<path d="M186 626 c-8 -31 3 -137 16 -153 5 -7 7 -17 3 -23 -7 -12 47 -70 66
-70 7 0 2 11 -11 25 -31 32 -18 44 23 21 l32 -18 -36 30 c-34 30 -76 98 -66
108 3 3 26 -13 51 -36 26 -22 50 -40 53 -40 2 0 -15 22 -39 48 -23 27 -53 68
-64 91 -21 41 -22 41 -28 17z"/>
<path d="M1560 605 c-14 -17 1 -75 25 -95 19 -16 81 4 95 30 22 41 -2 71 -40
50 -15 -8 -21 -6 -30 10 -13 24 -33 26 -50 5z"/>
<path d="M1288 550 c-15 -5 -36 -15 -48 -23 -22 -15 -22 -16 17 -27 21 -7 52
-10 68 -8 24 2 30 8 30 27 0 28 -28 41 -67 31z"/>
<path d="M1206 466 c3 -9 13 -16 21 -16 8 0 12 -4 9 -9 -3 -4 4 -17 15 -27 20
-18 21 -18 35 1 8 10 14 22 14 26 0 13 -26 27 -63 34 -32 6 -36 5 -31 -9z"/>
<path d="M939 356 c-2 -3 -60 -7 -129 -10 -69 -3 -168 -15 -220 -25 l-95 -19
150 4 150 3 -80 -14 -80 -14 135 4 c74 3 216 8 315 12 99 5 189 8 200 8 11 0
23 5 27 10 5 6 8 6 8 -1 0 -7 30 -14 73 -18 39 -4 88 -9 107 -12 29 -4 31 -3
13 5 -48 21 -255 53 -398 62 -183 10 -171 10 -176 5z"/>
<path d="M468 293 c7 -3 16 -2 19 1 4 3 -2 6 -13 5 -11 0 -14 -3 -6 -6z"/>
<path d="M1535 197 c-56 -19 -87 -21 -475 -24 -228 -2 -436 -3 -462 -3 -27 1
-48 -3 -48 -8 0 -16 115 -22 421 -22 233 0 299 3 299 13 0 8 3 7 10 -3 18 -28
273 20 315 61 11 11 13 12 -60 -14z"/>
<path d="M470 175 c40 -15 85 -20 60 -6 -8 5 -33 11 -55 14 l-40 6 35 -14z"/>
</g>
</svg>
